<svg xmlns="http://www.w3.org/2000/svg" viewBox="0 0 64 64" fill="none">
  <rect width="64" height="64" rx="18" fill="#111418"/>
  <rect x="8" y="8" width="48" height="48" rx="14" fill="#171d24" stroke="#2a323c" stroke-width="2"/>
  <path d="M22 19h8v17c0 5.523-4.477 10-10 10h-3v-7h2c1.657 0 3-1.343 3-3V19z" fill="#9aa1aa"/>
  <path d="M45 25h-7c-2.761 0-5 2.239-5 5v4c0 2.761 2.239 5 5 5h4v-4h-4v-6h7v10c0 4.418-3.582 8-8 8h-7v-6h7c1.105 0 2-.895 2-2v-2h-1c-4.971 0-9-4.029-9-9v-2c0-4.971 4.029-9 9-9h7v6z" fill="#f4f6f8"/>
</svg>